<svg width="205" height="33" viewBox="0 0 205 33" fill="none" xmlns="http://www.w3.org/2000/svg">
<g clip-path="url(#clip0_1_89)">
<path d="M202.596 -0.00012207H174.922C173.597 -0.00012207 172.525 1.04644 172.525 2.34038V30.1283C172.525 31.4222 173.597 32.4751 174.922 32.4751H202.596C203.922 32.4751 205 31.4222 205 30.1346V2.34038C205 1.04644 203.922 -0.00012207 202.596 -0.00012207ZM182.16 27.6736H177.339V12.1718H182.16V27.6736ZM179.749 10.0596C178.202 10.0596 176.952 8.81006 176.952 7.26875C176.952 5.72745 178.202 4.47791 179.749 4.47791C181.291 4.47791 182.54 5.72745 182.54 7.26875C182.54 8.80371 181.291 10.0596 179.749 10.0596ZM200.199 27.6736H195.384V20.1383C195.384 18.3433 195.353 16.0282 192.879 16.0282C190.373 16.0282 189.993 17.9881 189.993 20.0115V27.6736H185.185V12.1718H189.803V14.2903H189.866C190.507 13.0724 192.08 11.7848 194.42 11.7848C199.298 11.7848 200.199 14.9943 200.199 19.1679V27.6736Z" fill="black"/>
</g>
<g clip-path="url(#clip1_1_89)">
<path d="M131.254 2.92392C135.593 2.92392 136.106 2.94295 137.813 3.01906C139.398 3.08883 140.255 3.35523 140.825 3.57723C141.58 3.869 142.126 4.2242 142.69 4.78871C143.261 5.35956 143.61 5.8987 143.902 6.6535C144.124 7.22435 144.39 8.08698 144.46 9.66634C144.536 11.3789 144.555 11.8927 144.555 16.2248C144.555 20.5633 144.536 21.0771 144.46 22.7833C144.39 24.369 144.124 25.2253 143.902 25.7961C143.61 26.5509 143.255 27.0964 142.69 27.6609C142.119 28.2318 141.58 28.5806 140.825 28.8724C140.255 29.0944 139.392 29.3608 137.813 29.4306C136.1 29.5067 135.586 29.5257 131.254 29.5257C126.916 29.5257 126.402 29.5067 124.696 29.4306C123.11 29.3608 122.254 29.0944 121.683 28.8724C120.928 28.5806 120.383 28.2254 119.818 27.6609C119.247 27.0901 118.898 26.5509 118.607 25.7961C118.385 25.2253 118.118 24.3627 118.048 22.7833C117.972 21.0707 117.953 20.557 117.953 16.2248C117.953 11.8863 117.972 11.3726 118.048 9.66634C118.118 8.08063 118.385 7.22435 118.607 6.6535C118.898 5.8987 119.253 5.35322 119.818 4.78871C120.389 4.21785 120.928 3.869 121.683 3.57723C122.254 3.35523 123.116 3.08883 124.696 3.01906C126.402 2.94295 126.916 2.92392 131.254 2.92392ZM131.254 -0.00012207C126.846 -0.00012207 126.294 0.0189064 124.562 0.0950202C122.837 0.171134 121.651 0.450218 120.624 0.849816C119.552 1.26844 118.645 1.82027 117.744 2.72729C116.837 3.62797 116.285 4.535 115.866 5.60059C115.467 6.63447 115.188 7.81423 115.112 9.53948C115.036 11.2774 115.016 11.8292 115.016 16.2375C115.016 20.6458 115.036 21.1976 115.112 22.9292C115.188 24.6544 115.467 25.8405 115.866 26.8681C116.285 27.94 116.837 28.847 117.744 29.7477C118.645 30.6484 119.552 31.2066 120.617 31.6188C121.651 32.0184 122.831 32.2975 124.556 32.3736C126.288 32.4498 126.839 32.4688 131.248 32.4688C135.656 32.4688 136.208 32.4498 137.939 32.3736C139.665 32.2975 140.851 32.0184 141.878 31.6188C142.944 31.2066 143.851 30.6484 144.752 29.7477C145.652 28.847 146.21 27.94 146.623 26.8744C147.022 25.8405 147.301 24.6608 147.378 22.9355C147.454 21.2039 147.473 20.6521 147.473 16.2438C147.473 11.8356 147.454 11.2838 147.378 9.55217C147.301 7.82692 147.022 6.64081 146.623 5.61328C146.223 4.535 145.671 3.62797 144.764 2.72729C143.864 1.82661 142.957 1.26844 141.891 0.856159C140.857 0.456561 139.677 0.177477 137.952 0.101363C136.214 0.0189064 135.662 -0.00012207 131.254 -0.00012207Z" fill="black"/>
<path d="M131.254 7.89667C126.649 7.89667 122.913 11.6326 122.913 16.2375C122.913 20.8424 126.649 24.5783 131.254 24.5783C135.859 24.5783 139.595 20.8424 139.595 16.2375C139.595 11.6326 135.859 7.89667 131.254 7.89667ZM131.254 21.6479C128.267 21.6479 125.844 19.2249 125.844 16.2375C125.844 13.25 128.267 10.8271 131.254 10.8271C134.241 10.8271 136.664 13.25 136.664 16.2375C136.664 19.2249 134.241 21.6479 131.254 21.6479Z" fill="black"/>
<path d="M141.872 7.56669C141.872 8.64498 140.997 9.51394 139.925 9.51394C138.846 9.51394 137.977 8.63863 137.977 7.56669C137.977 6.48841 138.853 5.61945 139.925 5.61945C140.997 5.61945 141.872 6.49476 141.872 7.56669Z" fill="black"/>
</g>
<g clip-path="url(#clip2_1_89)">
<path d="M67.7246 29.4304C79.9764 29.4304 86.6795 19.2774 86.6795 10.4755C86.6795 10.1901 86.6732 9.8983 86.6605 9.61287C87.9644 8.66987 89.0897 7.50184 89.9835 6.16365C88.7691 6.70395 87.4797 7.05683 86.1594 7.21021C87.5496 6.37691 88.5905 5.06784 89.0891 3.52567C87.7813 4.30073 86.3511 4.84747 84.8598 5.14245C83.8549 4.07476 82.5263 3.36782 81.0794 3.13093C79.6325 2.89405 78.1479 3.14041 76.855 3.83192C75.5622 4.52343 74.5331 5.62159 73.927 6.9566C73.3208 8.29161 73.1714 9.78912 73.5017 11.2176C70.8535 11.0847 68.2629 10.3968 65.8977 9.19846C63.5324 8.00011 61.4454 6.31809 59.772 4.26143C58.9215 5.72786 58.6612 7.46313 59.0441 9.11455C59.427 10.766 60.4243 12.2097 61.8334 13.1522C60.7756 13.1186 59.7409 12.8338 58.8149 12.3213V12.4037C58.8139 13.9426 59.3459 15.4344 60.3205 16.6254C61.295 17.8164 62.6519 18.6331 64.1606 18.9368C63.1807 19.2049 62.1522 19.244 61.1547 19.051C61.5804 20.3745 62.4087 21.532 63.524 22.3621C64.6392 23.1921 65.9858 23.6533 67.3758 23.6812C65.016 25.5349 62.101 26.5403 59.1003 26.5355C58.5681 26.5347 58.0365 26.5021 57.5082 26.4378C60.5567 28.3936 64.1028 29.4323 67.7246 29.4304Z" fill="black"/>
</g>
<g clip-path="url(#clip3_1_89)">
<path d="M32.4752 16.2376C32.4752 7.26983 25.2054 0 16.2376 0C7.26983 0 0 7.26983 0 16.2376C0 24.3422 5.93783 31.0598 13.7005 32.278V20.9313H9.57766V16.2376H13.7005V12.6603C13.7005 8.59072 16.1247 6.34282 19.8337 6.34282C21.6097 6.34282 23.4684 6.65996 23.4684 6.65996V10.6559H21.421C19.404 10.6559 18.7748 11.9077 18.7748 13.1931V16.2376H23.2782L22.5582 20.9313H18.7748V32.278C26.5374 31.0598 32.4752 24.3422 32.4752 16.2376Z" fill="black"/>
</g>
<defs>
<clipPath id="clip0_1_89">
<rect width="32.4752" height="32.4752" fill="white" transform="translate(172.525 -0.00012207)"/>
</clipPath>
<clipPath id="clip1_1_89">
<rect width="32.4752" height="32.4752" fill="white" transform="translate(115.016 -0.00012207)"/>
</clipPath>
<clipPath id="clip2_1_89">
<rect width="32.4752" height="32.4752" fill="white" transform="translate(57.5082 -0.00012207)"/>
</clipPath>
<clipPath id="clip3_1_89">
<rect width="32.4752" height="32.4752" fill="white"/>
</clipPath>
</defs>
</svg>
